<svg width="280" height="65" viewBox="0 0 280 65" fill="none" xmlns="http://www.w3.org/2000/svg">
<path d="M76.512 53.4769C76.208 53.4769 75.9253 53.4369 75.664 53.3569C75.408 53.2769 75.1733 53.1569 74.96 52.9969C74.752 52.8315 74.5653 52.6289 74.4 52.3889L74.992 51.7089C75.2533 52.0822 75.504 52.3409 75.744 52.4849C75.984 52.6289 76.2693 52.7009 76.6 52.7009C76.8027 52.7009 76.9867 52.6689 77.152 52.6049C77.3173 52.5409 77.448 52.4529 77.544 52.3409C77.64 52.2289 77.688 52.1009 77.688 51.9569C77.688 51.8609 77.672 51.7702 77.64 51.6849C77.608 51.5995 77.5573 51.5222 77.488 51.4529C77.424 51.3835 77.3387 51.3195 77.232 51.2609C77.1307 51.2022 77.0107 51.1515 76.872 51.1089C76.7333 51.0609 76.5733 51.0209 76.392 50.9889C76.104 50.9302 75.8533 50.8529 75.64 50.7569C75.4267 50.6609 75.248 50.5409 75.104 50.3969C74.96 50.2529 74.8533 50.0902 74.784 49.9089C74.7147 49.7222 74.68 49.5142 74.68 49.2849C74.68 49.0609 74.728 48.8529 74.824 48.6609C74.9253 48.4689 75.0613 48.3035 75.232 48.1649C75.408 48.0209 75.6133 47.9115 75.848 47.8369C76.0827 47.7569 76.336 47.7169 76.608 47.7169C76.896 47.7169 77.16 47.7542 77.4 47.8289C77.64 47.9035 77.8533 48.0155 78.04 48.1649C78.2267 48.3089 78.3813 48.4875 78.504 48.7009L77.896 49.3009C77.7893 49.1249 77.6693 48.9782 77.536 48.8609C77.4027 48.7382 77.256 48.6475 77.096 48.5889C76.936 48.5249 76.7653 48.4929 76.584 48.4929C76.376 48.4929 76.1947 48.5249 76.04 48.5889C75.8853 48.6529 75.7627 48.7435 75.672 48.8609C75.5867 48.9729 75.544 49.1062 75.544 49.2609C75.544 49.3729 75.5653 49.4769 75.608 49.5729C75.6507 49.6635 75.7147 49.7462 75.8 49.8209C75.8907 49.8902 76.0107 49.9542 76.16 50.0129C76.3093 50.0662 76.488 50.1142 76.696 50.1569C76.9893 50.2209 77.2507 50.3035 77.48 50.4049C77.7093 50.5009 77.904 50.6155 78.064 50.7489C78.224 50.8822 78.344 51.0315 78.424 51.1969C78.5093 51.3622 78.552 51.5409 78.552 51.7329C78.552 52.0902 78.4693 52.3995 78.304 52.6609C78.1387 52.9222 77.904 53.1249 77.6 53.2689C77.296 53.4075 76.9333 53.4769 76.512 53.4769ZM79.5682 55.1569V49.1969H80.4002V50.1569L80.2722 50.0849C80.3042 49.9249 80.3949 49.7729 80.5442 49.6289C80.6935 49.4795 80.8749 49.3595 81.0882 49.2689C81.3069 49.1729 81.5309 49.1249 81.7602 49.1249C82.1389 49.1249 82.4749 49.2182 82.7682 49.4049C83.0615 49.5915 83.2935 49.8475 83.4642 50.1729C83.6349 50.4982 83.7202 50.8715 83.7202 51.2929C83.7202 51.7089 83.6349 52.0822 83.4642 52.4129C83.2989 52.7382 83.0695 52.9969 82.7762 53.1889C82.4829 53.3755 82.1522 53.4689 81.7842 53.4689C81.5389 53.4689 81.3015 53.4209 81.0722 53.3249C80.8429 53.2235 80.6482 53.0955 80.4882 52.9409C80.3282 52.7862 80.2295 52.6262 80.1922 52.4609L80.4002 52.3489V55.1569H79.5682ZM81.6482 52.7089C81.8935 52.7089 82.1122 52.6475 82.3042 52.5249C82.4962 52.4022 82.6482 52.2342 82.7602 52.0209C82.8722 51.8075 82.9282 51.5649 82.9282 51.2929C82.9282 51.0209 82.8722 50.7809 82.7602 50.5729C82.6535 50.3595 82.5042 50.1915 82.3122 50.0689C82.1202 49.9462 81.8989 49.8849 81.6482 49.8849C81.3975 49.8849 81.1762 49.9462 80.9842 50.0689C80.7922 50.1862 80.6402 50.3515 80.5282 50.5649C80.4162 50.7782 80.3602 51.0209 80.3602 51.2929C80.3602 51.5649 80.4162 51.8075 80.5282 52.0209C80.6402 52.2342 80.7922 52.4022 80.9842 52.5249C81.1762 52.6475 81.3975 52.7089 81.6482 52.7089ZM86.2311 53.4769C85.8844 53.4769 85.5671 53.3809 85.2791 53.1889C84.9964 52.9969 84.7697 52.7355 84.5991 52.4049C84.4284 52.0742 84.3431 51.7009 84.3431 51.2849C84.3431 50.8635 84.4284 50.4902 84.5991 50.1649C84.7751 49.8342 85.0097 49.5755 85.3031 49.3889C85.6017 49.2022 85.9351 49.1089 86.3031 49.1089C86.5217 49.1089 86.7217 49.1409 86.9031 49.2049C87.0844 49.2689 87.2417 49.3595 87.3751 49.4769C87.5137 49.5889 87.6257 49.7195 87.7111 49.8689C87.8017 50.0182 87.8577 50.1782 87.8791 50.3489L87.6951 50.2849V49.1969H88.5271V53.3969H87.6951V52.3969L87.8871 52.3409C87.8551 52.4849 87.7884 52.6262 87.6871 52.7649C87.5911 52.8982 87.4657 53.0182 87.3111 53.1249C87.1617 53.2315 86.9937 53.3169 86.8071 53.3809C86.6257 53.4449 86.4337 53.4769 86.2311 53.4769ZM86.4471 52.7169C86.6977 52.7169 86.9191 52.6555 87.1111 52.5329C87.3031 52.4102 87.4524 52.2422 87.5591 52.0289C87.6711 51.8102 87.7271 51.5622 87.7271 51.2849C87.7271 51.0129 87.6711 50.7702 87.5591 50.5569C87.4524 50.3435 87.3031 50.1755 87.1111 50.0529C86.9191 49.9302 86.6977 49.8689 86.4471 49.8689C86.2017 49.8689 85.9831 49.9302 85.7911 50.0529C85.6044 50.1755 85.4551 50.3435 85.3431 50.5569C85.2364 50.7702 85.1831 51.0129 85.1831 51.2849C85.1831 51.5622 85.2364 51.8102 85.3431 52.0289C85.4551 52.2422 85.6044 52.4102 85.7911 52.5329C85.9831 52.6555 86.2017 52.7169 86.4471 52.7169ZM89.6776 53.3969V49.1969H90.5096V50.5169L90.4296 50.1969C90.4882 49.9942 90.5869 49.8102 90.7256 49.6449C90.8696 49.4795 91.0322 49.3489 91.2136 49.2529C91.4002 49.1569 91.5922 49.1089 91.7896 49.1089C91.8802 49.1089 91.9656 49.1169 92.0456 49.1329C92.1309 49.1489 92.1976 49.1675 92.2456 49.1889L92.0296 50.0849C91.9656 50.0582 91.8936 50.0369 91.8136 50.0209C91.7389 49.9995 91.6642 49.9889 91.5896 49.9889C91.4456 49.9889 91.3069 50.0182 91.1736 50.0769C91.0456 50.1302 90.9309 50.2075 90.8296 50.3089C90.7336 50.4049 90.6562 50.5195 90.5976 50.6529C90.5389 50.7809 90.5096 50.9222 90.5096 51.0769V53.3969H89.6776ZM93.6561 52.0849L93.6161 51.1889L95.6241 49.1969H96.7361L93.6561 52.0849ZM92.9041 53.3969V47.4769H93.7281V53.3969H92.9041ZM95.7361 53.3969L94.1521 51.5489L94.7361 51.0129L96.7921 53.3969H95.7361ZM99.2313 53.4769C98.7993 53.4769 98.4153 53.3862 98.0793 53.2049C97.7486 53.0182 97.4873 52.7649 97.2953 52.4449C97.1086 52.1249 97.0153 51.7569 97.0153 51.3409C97.0153 51.0102 97.0686 50.7089 97.1753 50.4369C97.282 50.1649 97.4286 49.9302 97.6153 49.7329C97.8073 49.5302 98.034 49.3755 98.2953 49.2689C98.562 49.1569 98.85 49.1009 99.1593 49.1009C99.4313 49.1009 99.6846 49.1542 99.9193 49.2609C100.154 49.3622 100.357 49.5035 100.527 49.6849C100.703 49.8662 100.837 50.0822 100.927 50.3329C101.023 50.5782 101.069 50.8475 101.063 51.1409L101.055 51.4929H97.6233L97.4393 50.8369H100.343L100.223 50.9729V50.7809C100.207 50.6049 100.149 50.4475 100.047 50.3089C99.946 50.1702 99.818 50.0609 99.6633 49.9809C99.5086 49.9009 99.3406 49.8609 99.1593 49.8609C98.8713 49.8609 98.6286 49.9169 98.4313 50.0289C98.234 50.1355 98.0846 50.2955 97.9833 50.5089C97.882 50.7169 97.8313 50.9755 97.8313 51.2849C97.8313 51.5782 97.8926 51.8342 98.0153 52.0529C98.138 52.2662 98.3113 52.4315 98.5353 52.5489C98.7593 52.6662 99.018 52.7249 99.3113 52.7249C99.5193 52.7249 99.7113 52.6902 99.8873 52.6209C100.069 52.5515 100.263 52.4262 100.471 52.2449L100.887 52.8289C100.759 52.9569 100.602 53.0689 100.415 53.1649C100.234 53.2609 100.039 53.3382 99.8313 53.3969C99.6286 53.4502 99.4286 53.4769 99.2313 53.4769ZM103.711 53.4769C103.327 53.4769 102.983 53.3835 102.679 53.1969C102.38 53.0049 102.143 52.7462 101.967 52.4209C101.791 52.0902 101.703 51.7142 101.703 51.2929C101.703 50.8715 101.788 50.4982 101.959 50.1729C102.135 49.8422 102.372 49.5835 102.671 49.3969C102.969 49.2049 103.308 49.1089 103.687 49.1089C103.895 49.1089 104.095 49.1435 104.287 49.2129C104.484 49.2769 104.66 49.3675 104.815 49.4849C104.969 49.5969 105.089 49.7222 105.175 49.8609C105.265 49.9942 105.311 50.1302 105.311 50.2689L105.071 50.2849V47.4769H105.895V53.3969H105.071V52.3969H105.231C105.231 52.5249 105.188 52.6529 105.103 52.7809C105.017 52.9035 104.903 53.0182 104.759 53.1249C104.62 53.2315 104.457 53.3169 104.271 53.3809C104.089 53.4449 103.903 53.4769 103.711 53.4769ZM103.823 52.7649C104.073 52.7649 104.295 52.7009 104.487 52.5729C104.679 52.4449 104.828 52.2715 104.935 52.0529C105.047 51.8289 105.103 51.5755 105.103 51.2929C105.103 51.0102 105.047 50.7595 104.935 50.5409C104.828 50.3169 104.679 50.1409 104.487 50.0129C104.295 49.8849 104.073 49.8209 103.823 49.8209C103.572 49.8209 103.351 49.8849 103.159 50.0129C102.967 50.1409 102.815 50.3169 102.703 50.5409C102.596 50.7595 102.543 51.0102 102.543 51.2929C102.543 51.5755 102.596 51.8289 102.703 52.0529C102.815 52.2715 102.967 52.4449 103.159 52.5729C103.351 52.7009 103.572 52.7649 103.823 52.7649ZM111.479 53.4769C111.298 53.4769 111.117 53.4475 110.935 53.3889C110.759 53.3302 110.597 53.2529 110.447 53.1569C110.303 53.0555 110.181 52.9462 110.079 52.8289C109.983 52.7062 109.919 52.5835 109.887 52.4609L110.095 52.3489V53.3729H109.271V47.4769H110.095V50.1569L109.967 50.0849C109.994 49.9622 110.053 49.8449 110.143 49.7329C110.234 49.6155 110.349 49.5115 110.487 49.4209C110.631 49.3249 110.786 49.2502 110.951 49.1969C111.117 49.1382 111.285 49.1089 111.455 49.1089C111.834 49.1089 112.17 49.2022 112.463 49.3889C112.757 49.5755 112.989 49.8342 113.159 50.1649C113.33 50.4902 113.415 50.8635 113.415 51.2849C113.415 51.7062 113.33 52.0822 113.159 52.4129C112.994 52.7435 112.765 53.0049 112.471 53.1969C112.178 53.3835 111.847 53.4769 111.479 53.4769ZM111.343 52.7249C111.589 52.7249 111.807 52.6635 111.999 52.5409C112.191 52.4129 112.343 52.2422 112.455 52.0289C112.567 51.8102 112.623 51.5622 112.623 51.2849C112.623 51.0129 112.567 50.7702 112.455 50.5569C112.349 50.3382 112.199 50.1675 112.007 50.0449C111.815 49.9222 111.594 49.8609 111.343 49.8609C111.093 49.8609 110.871 49.9222 110.679 50.0449C110.487 50.1675 110.335 50.3382 110.223 50.5569C110.111 50.7702 110.055 51.0129 110.055 51.2849C110.055 51.5622 110.111 51.8102 110.223 52.0289C110.335 52.2422 110.487 52.4129 110.679 52.5409C110.871 52.6635 111.093 52.7249 111.343 52.7249ZM114.858 55.2369L115.706 53.2769L115.714 53.9329L113.618 49.1969H114.578L115.89 52.2849C115.917 52.3382 115.949 52.4209 115.986 52.5329C116.023 52.6395 116.055 52.7462 116.082 52.8529L115.874 52.9009C115.917 52.7889 115.957 52.6769 115.994 52.5649C116.037 52.4529 116.077 52.3409 116.114 52.2289L117.21 49.1969H118.186L116.458 53.3969L115.746 55.2369H114.858ZM121.253 53.3969V47.7969H122.101L124.141 51.1169L123.733 51.1089L125.797 47.7969H126.597V53.3969H125.733V51.1009C125.733 50.6209 125.743 50.1889 125.765 49.8049C125.791 49.4209 125.834 49.0395 125.893 48.6609L126.005 48.9569L124.173 51.7889H123.645L121.869 48.9889L121.957 48.6609C122.015 49.0182 122.055 49.3862 122.077 49.7649C122.103 50.1382 122.117 50.5835 122.117 51.1009V53.3969H121.253ZM127.959 53.3969V52.5969H128.863V48.5969H127.959V47.7969H130.631V48.5969H129.727V52.5969H130.631V53.3969H127.959ZM134.142 53.4769C133.753 53.4769 133.395 53.4075 133.07 53.2689C132.745 53.1302 132.462 52.9329 132.222 52.6769C131.982 52.4155 131.795 52.1089 131.662 51.7569C131.534 51.4049 131.47 51.0182 131.47 50.5969C131.47 50.1969 131.539 49.8262 131.678 49.4849C131.822 49.1382 132.019 48.8342 132.27 48.5729C132.521 48.3115 132.811 48.1089 133.142 47.9649C133.473 47.8209 133.83 47.7489 134.214 47.7489C134.486 47.7489 134.75 47.7915 135.006 47.8769C135.267 47.9569 135.502 48.0715 135.71 48.2209C135.923 48.3649 136.097 48.5302 136.23 48.7169L135.654 49.3169C135.499 49.1622 135.342 49.0342 135.182 48.9329C135.027 48.8262 134.867 48.7462 134.702 48.6929C134.542 48.6395 134.379 48.6129 134.214 48.6129C133.953 48.6129 133.707 48.6635 133.478 48.7649C133.254 48.8609 133.057 48.9969 132.886 49.1729C132.721 49.3489 132.59 49.5595 132.494 49.8049C132.398 50.0449 132.35 50.3089 132.35 50.5969C132.35 50.9009 132.395 51.1782 132.486 51.4289C132.582 51.6742 132.715 51.8849 132.886 52.0609C133.057 52.2369 133.259 52.3729 133.494 52.4689C133.734 52.5595 133.998 52.6049 134.286 52.6049C134.462 52.6049 134.635 52.5809 134.806 52.5329C134.977 52.4849 135.137 52.4155 135.286 52.3249C135.435 52.2342 135.571 52.1275 135.694 52.0049L136.126 52.7089C136.003 52.8529 135.835 52.9835 135.622 53.1009C135.414 53.2182 135.179 53.3115 134.918 53.3809C134.662 53.4449 134.403 53.4769 134.142 53.4769ZM141.078 54.8849C140.427 54.4795 139.931 53.9729 139.59 53.3649C139.248 52.7569 139.078 52.0795 139.078 51.3329C139.078 50.5915 139.248 49.9169 139.59 49.3089C139.936 48.6955 140.435 48.1862 141.086 47.7809L141.526 48.2769C140.982 48.6555 140.566 49.1089 140.278 49.6369C139.995 50.1595 139.854 50.7249 139.854 51.3329C139.854 51.9409 139.995 52.5089 140.278 53.0369C140.566 53.5595 140.982 54.0102 141.526 54.3889L141.078 54.8849ZM142.472 53.3969V47.7969H143.32L145.36 51.1169L144.952 51.1089L147.016 47.7969H147.816V53.3969H146.952V51.1009C146.952 50.6209 146.962 50.1889 146.984 49.8049C147.01 49.4209 147.053 49.0395 147.112 48.6609L147.224 48.9569L145.392 51.7889H144.864L143.088 48.9889L143.176 48.6609C143.234 49.0182 143.274 49.3862 143.296 49.7649C143.322 50.1382 143.336 50.5835 143.336 51.1009V53.3969H142.472ZM150.794 53.4769C150.447 53.4769 150.13 53.3809 149.842 53.1889C149.559 52.9969 149.332 52.7355 149.162 52.4049C148.991 52.0742 148.906 51.7009 148.906 51.2849C148.906 50.8635 148.991 50.4902 149.162 50.1649C149.338 49.8342 149.572 49.5755 149.866 49.3889C150.164 49.2022 150.498 49.1089 150.866 49.1089C151.084 49.1089 151.284 49.1409 151.466 49.2049C151.647 49.2689 151.804 49.3595 151.938 49.4769C152.076 49.5889 152.188 49.7195 152.274 49.8689C152.364 50.0182 152.42 50.1782 152.442 50.3489L152.258 50.2849V49.1969H153.09V53.3969H152.258V52.3969L152.45 52.3409C152.418 52.4849 152.351 52.6262 152.25 52.7649C152.154 52.8982 152.028 53.0182 151.874 53.1249C151.724 53.2315 151.556 53.3169 151.37 53.3809C151.188 53.4449 150.996 53.4769 150.794 53.4769ZM151.01 52.7169C151.26 52.7169 151.482 52.6555 151.674 52.5329C151.866 52.4102 152.015 52.2422 152.122 52.0289C152.234 51.8102 152.29 51.5622 152.29 51.2849C152.29 51.0129 152.234 50.7702 152.122 50.5569C152.015 50.3435 151.866 50.1755 151.674 50.0529C151.482 49.9302 151.26 49.8689 151.01 49.8689C150.764 49.8689 150.546 49.9302 150.354 50.0529C150.167 50.1755 150.018 50.3435 149.906 50.5569C149.799 50.7702 149.746 51.0129 149.746 51.2849C149.746 51.5622 149.799 51.8102 149.906 52.0289C150.018 52.2422 150.167 52.4102 150.354 52.5329C150.546 52.6555 150.764 52.7169 151.01 52.7169ZM155.992 53.4769C155.608 53.4769 155.264 53.3835 154.96 53.1969C154.661 53.0049 154.424 52.7462 154.248 52.4209C154.072 52.0902 153.984 51.7142 153.984 51.2929C153.984 50.8715 154.069 50.4982 154.24 50.1729C154.416 49.8422 154.653 49.5835 154.952 49.3969C155.251 49.2049 155.589 49.1089 155.968 49.1089C156.176 49.1089 156.376 49.1435 156.568 49.2129C156.765 49.2769 156.941 49.3675 157.096 49.4849C157.251 49.5969 157.371 49.7222 157.456 49.8609C157.547 49.9942 157.592 50.1302 157.592 50.2689L157.352 50.2849V47.4769H158.176V53.3969H157.352V52.3969H157.512C157.512 52.5249 157.469 52.6529 157.384 52.7809C157.299 52.9035 157.184 53.0182 157.04 53.1249C156.901 53.2315 156.739 53.3169 156.552 53.3809C156.371 53.4449 156.184 53.4769 155.992 53.4769ZM156.104 52.7649C156.355 52.7649 156.576 52.7009 156.768 52.5729C156.96 52.4449 157.109 52.2715 157.216 52.0529C157.328 51.8289 157.384 51.5755 157.384 51.2929C157.384 51.0102 157.328 50.7595 157.216 50.5409C157.109 50.3169 156.96 50.1409 156.768 50.0129C156.576 49.8849 156.355 49.8209 156.104 49.8209C155.853 49.8209 155.632 49.8849 155.44 50.0129C155.248 50.1409 155.096 50.3169 154.984 50.5409C154.877 50.7595 154.824 51.0102 154.824 51.2929C154.824 51.5755 154.877 51.8289 154.984 52.0529C155.096 52.2715 155.248 52.4449 155.44 52.5729C155.632 52.7009 155.853 52.7649 156.104 52.7649ZM161.27 53.4769C160.838 53.4769 160.454 53.3862 160.118 53.2049C159.788 53.0182 159.526 52.7649 159.334 52.4449C159.148 52.1249 159.054 51.7569 159.054 51.3409C159.054 51.0102 159.108 50.7089 159.214 50.4369C159.321 50.1649 159.468 49.9302 159.654 49.7329C159.846 49.5302 160.073 49.3755 160.334 49.2689C160.601 49.1569 160.889 49.1009 161.198 49.1009C161.47 49.1009 161.724 49.1542 161.958 49.2609C162.193 49.3622 162.396 49.5035 162.566 49.6849C162.742 49.8662 162.876 50.0822 162.966 50.3329C163.062 50.5782 163.108 50.8475 163.102 51.1409L163.094 51.4929H159.662L159.478 50.8369H162.382L162.262 50.9729V50.7809C162.246 50.6049 162.188 50.4475 162.086 50.3089C161.985 50.1702 161.857 50.0609 161.702 49.9809C161.548 49.9009 161.38 49.8609 161.198 49.8609C160.91 49.8609 160.668 49.9169 160.47 50.0289C160.273 50.1355 160.124 50.2955 160.022 50.5089C159.921 50.7169 159.87 50.9755 159.87 51.2849C159.87 51.5782 159.932 51.8342 160.054 52.0529C160.177 52.2662 160.35 52.4315 160.574 52.5489C160.798 52.6662 161.057 52.7249 161.35 52.7249C161.558 52.7249 161.75 52.6902 161.926 52.6209C162.108 52.5515 162.302 52.4262 162.51 52.2449L162.926 52.8289C162.798 52.9569 162.641 53.0689 162.454 53.1649C162.273 53.2609 162.078 53.3382 161.87 53.3969C161.668 53.4502 161.468 53.4769 161.27 53.4769ZM163.846 51.5169V50.7009H166.15V51.5169H163.846ZM167.146 53.3969V52.5969H168.05V48.5969H167.146V47.7969H169.818V48.5969H168.914V52.5969H169.818V53.3969H167.146ZM170.967 53.3969V49.1969H171.791V50.0609L171.647 50.1569C171.7 49.9702 171.804 49.7995 171.959 49.6449C172.113 49.4849 172.297 49.3569 172.511 49.2609C172.724 49.1595 172.943 49.1089 173.167 49.1089C173.487 49.1089 173.753 49.1729 173.967 49.3009C174.18 49.4235 174.34 49.6129 174.447 49.8689C174.553 50.1249 174.607 50.4475 174.607 50.8369V53.3969H173.783V50.8929C173.783 50.6529 173.751 50.4555 173.687 50.3009C173.623 50.1409 173.524 50.0262 173.391 49.9569C173.257 49.8822 173.092 49.8502 172.895 49.8609C172.735 49.8609 172.588 49.8875 172.455 49.9409C172.321 49.9889 172.204 50.0582 172.103 50.1489C172.007 50.2395 171.929 50.3462 171.871 50.4689C171.817 50.5862 171.791 50.7142 171.791 50.8529V53.3969H171.383C171.313 53.3969 171.244 53.3969 171.175 53.3969C171.105 53.3969 171.036 53.3969 170.967 53.3969ZM175.572 51.5169V50.7009H177.876V51.5169H175.572ZM181.353 53.4769C180.964 53.4769 180.606 53.4075 180.281 53.2689C179.956 53.1302 179.673 52.9329 179.433 52.6769C179.193 52.4155 179.006 52.1089 178.873 51.7569C178.745 51.4049 178.681 51.0182 178.681 50.5969C178.681 50.1969 178.75 49.8262 178.889 49.4849C179.033 49.1382 179.23 48.8342 179.481 48.5729C179.732 48.3115 180.022 48.1089 180.353 47.9649C180.684 47.8209 181.041 47.7489 181.425 47.7489C181.697 47.7489 181.961 47.7915 182.217 47.8769C182.478 47.9569 182.713 48.0715 182.921 48.2209C183.134 48.3649 183.308 48.5302 183.441 48.7169L182.865 49.3169C182.71 49.1622 182.553 49.0342 182.393 48.9329C182.238 48.8262 182.078 48.7462 181.913 48.6929C181.753 48.6395 181.59 48.6129 181.425 48.6129C181.164 48.6129 180.918 48.6635 180.689 48.7649C180.465 48.8609 180.268 48.9969 180.097 49.1729C179.932 49.3489 179.801 49.5595 179.705 49.8049C179.609 50.0449 179.561 50.3089 179.561 50.5969C179.561 50.9009 179.606 51.1782 179.697 51.4289C179.793 51.6742 179.926 51.8849 180.097 52.0609C180.268 52.2369 180.47 52.3729 180.705 52.4689C180.945 52.5595 181.209 52.6049 181.497 52.6049C181.673 52.6049 181.846 52.5809 182.017 52.5329C182.188 52.4849 182.348 52.4155 182.497 52.3249C182.646 52.2342 182.782 52.1275 182.905 52.0049L183.337 52.7089C183.214 52.8529 183.046 52.9835 182.833 53.1009C182.625 53.2182 182.39 53.3115 182.129 53.3809C181.873 53.4449 181.614 53.4769 181.353 53.4769ZM184.511 53.3969V47.7969H186.791C187.095 47.7969 187.369 47.8742 187.615 48.0289C187.865 48.1782 188.065 48.3835 188.215 48.6449C188.364 48.9062 188.439 49.1969 188.439 49.5169C188.439 49.8369 188.364 50.1275 188.215 50.3889C188.065 50.6502 187.865 50.8609 187.615 51.0209C187.369 51.1755 187.095 51.2529 186.791 51.2529H185.375V53.3969H184.511ZM185.375 50.4209H186.775C186.919 50.4209 187.049 50.3809 187.167 50.3009C187.284 50.2155 187.377 50.1062 187.447 49.9729C187.521 49.8342 187.559 49.6822 187.559 49.5169C187.559 49.3515 187.521 49.2022 187.447 49.0689C187.377 48.9355 187.284 48.8289 187.167 48.7489C187.049 48.6689 186.919 48.6289 186.775 48.6289H185.375V50.4209ZM189.581 53.3969V47.7969H190.445V53.3969H189.581ZM189.965 51.0129V50.1809H192.853V51.0129H189.965ZM189.965 48.6289V47.7969H193.213V48.6289H189.965ZM194.209 54.8849L193.769 54.3889C194.313 54.0102 194.727 53.5595 195.009 53.0369C195.297 52.5089 195.441 51.9409 195.441 51.3329C195.441 50.7249 195.297 50.1595 195.009 49.6369C194.727 49.1089 194.313 48.6555 193.769 48.2769L194.217 47.7809C194.868 48.1862 195.364 48.6929 195.705 49.3009C196.047 49.9089 196.217 50.5862 196.217 51.3329C196.217 52.0742 196.044 52.7515 195.697 53.3649C195.356 53.9729 194.86 54.4795 194.209 54.8849Z" fill="white"/>
<path d="M273.887 2.70204C274.076 2.17624 275.096 2.22886 275.249 2.76635C275.504 3.66071 275.859 4.54211 276.333 5.01134C276.852 5.52421 277.607 5.94357 278.297 6.25448C278.76 6.4631 278.761 7.30722 278.3 7.52228C277.59 7.85416 276.819 8.3122 276.333 8.88855C275.856 9.4554 275.447 10.3828 275.138 11.2508C274.958 11.7548 274.087 11.7429 273.934 11.2303C273.676 10.3682 273.351 9.45095 273.006 8.88855C272.635 8.28322 271.747 7.80839 270.901 7.47317C270.418 7.28161 270.392 6.40434 270.865 6.18859C271.599 5.85408 272.368 5.41373 272.8 4.90046C273.194 4.43271 273.573 3.57262 273.887 2.70204Z" fill="#7AF987"/>
<path d="M41.4443 23.2734C43.4774 22.3813 45.678 22.0221 47.8623 22.2207L48.2988 22.2676H48.3008C48.8106 22.3301 49.1415 22.675 49.2588 23.1426C49.3787 23.6211 49.2618 24.2041 48.8506 24.6445L44.8857 28.8701C43.6462 30.1911 42.9542 31.9758 42.9541 33.8311C42.9541 34.6354 43.0848 35.4335 43.3389 36.1904L43.4551 36.5127C43.7445 37.2572 44.1523 37.9437 44.6611 38.542L44.8857 38.793C45.4231 39.3656 46.0496 39.8364 46.7383 40.1836L47.0371 40.3242C47.8438 40.6803 48.7097 40.8642 49.585 40.8643C51.2435 40.8643 52.8325 40.2058 54.0469 39.0342L54.2852 38.793L58.25 34.5674C58.6575 34.1333 59.1775 34.0253 59.5908 34.1426C59.9427 34.2426 60.2542 34.5151 60.3691 34.9785L60.4053 35.1895V35.1904C60.6627 37.5309 60.3912 39.9001 59.6162 42.1006L59.4551 42.5381C58.6133 44.7149 57.2968 46.6401 55.6211 48.1572L55.2812 48.4551C53.5581 49.917 51.5361 50.9154 49.3857 51.3721L48.9541 51.4561C46.6433 51.8657 44.2723 51.641 42.0645 50.8018L41.751 50.6826L41.5225 50.9268L30.4365 62.7441C29.9121 63.3029 29.2912 63.7444 28.6104 64.0449C27.9295 64.3454 27.2007 64.5 26.4658 64.5C25.7311 64.5 25.003 64.3453 24.3223 64.0449C23.7263 63.7819 23.1758 63.4114 22.6963 62.9482L22.4951 62.7441C22.0362 62.2551 21.6591 61.6845 21.3809 61.0576L21.2676 60.7861C20.9821 60.0518 20.835 59.2633 20.835 58.4668C20.835 57.7699 20.9476 57.0794 21.167 56.4258L21.2676 56.1484C21.5173 55.506 21.8685 54.9161 22.3037 54.4043L22.4951 54.1895L33.5811 42.377L33.7861 42.1592L33.6904 41.876C32.9478 39.6576 32.715 37.2833 33.0078 34.9521L33.0732 34.4863C33.4606 32.0068 34.4351 29.6757 35.9014 27.7139C37.3674 25.7525 39.2758 24.2251 41.4443 23.2734ZM10.167 0.5H38.6338C41.1869 0.500065 43.6424 1.5809 45.458 3.51562C47.2746 5.45146 48.2998 8.08355 48.2998 10.834V16.9072C47.2797 16.8142 46.2541 16.8099 45.2334 16.8945V16.834H3.56641V41.168C3.56642 42.8992 4.17141 44.5691 5.26367 45.8545L5.48828 46.1064C6.72322 47.4224 8.40593 48.168 10.167 48.168H21.0254L18.8877 50.4453C18.5749 50.7777 18.283 51.1313 18.0117 51.502H10.167C7.77344 51.502 5.46561 50.5517 3.69043 48.8389L3.34277 48.4863C1.52611 46.5505 0.500019 43.9185 0.5 41.168V10.834C0.5 8.25554 1.40139 5.78099 3.01074 3.88672L3.34277 3.51562C5.15844 1.58085 7.61384 0.5 10.167 0.5ZM20.333 22.165C20.4808 22.165 20.6285 22.1875 20.7705 22.2334L20.9111 22.2871C21.0951 22.3684 21.2641 22.489 21.4082 22.6426C21.5163 22.7578 21.6087 22.8898 21.6816 23.0352L21.748 23.1846C21.8277 23.3895 21.8691 23.6105 21.8691 23.834C21.8691 24.0575 21.8277 24.2785 21.748 24.4834C21.6883 24.6369 21.6088 24.7791 21.5117 24.9053L21.4082 25.0254L14.7109 32.1592L14.3896 32.501L14.7109 32.8428L21.4082 39.9766V39.9756C21.7001 40.2866 21.8691 40.7153 21.8691 41.168C21.8691 41.5642 21.7398 41.9417 21.5117 42.2383L21.4082 42.3594C21.1174 42.6693 20.7297 42.8369 20.333 42.8369C19.9862 42.8368 19.6463 42.7092 19.3721 42.4697L19.2588 42.3594L11.125 33.6924L11.0215 33.5713C10.9567 33.4873 10.8992 33.3965 10.8506 33.2998L10.7842 33.1504C10.7044 32.9455 10.6631 32.7245 10.6631 32.501C10.6631 32.3335 10.6862 32.1676 10.7314 32.0088L10.7842 31.8516C10.8439 31.6982 10.9243 31.5566 11.0215 31.4307L11.125 31.3096V31.3086L19.2588 22.6426C19.3669 22.5273 19.489 22.4307 19.6211 22.3555L19.7559 22.2871C19.9398 22.2059 20.136 22.1651 20.333 22.165ZM28.4668 22.165C28.6147 22.165 28.7622 22.1875 28.9043 22.2334L29.0439 22.2871C29.2281 22.3684 29.3978 22.4889 29.542 22.6426V22.6416L31.6074 24.8467C30.961 25.762 30.3963 26.7166 29.9141 27.7109L27.3916 25.0254H27.3906C27.2468 24.8719 27.1312 24.6878 27.0518 24.4834C26.9721 24.2785 26.9307 24.0575 26.9307 23.834C26.9307 23.6665 26.9539 23.5006 26.999 23.3418L27.0518 23.1846C27.1115 23.0309 27.1918 22.8889 27.2891 22.7627L27.3916 22.6426C27.4998 22.5273 27.6227 22.4308 27.7549 22.3555L27.8896 22.2871C28.0737 22.2059 28.2697 22.165 28.4668 22.165Z" fill="#838383" stroke="#838383"/>
<mask id="path-4-outside-1_422_835" maskUnits="userSpaceOnUse" x="67" y="13" width="205" height="27" fill="black">
<rect fill="white" x="67" y="13" width="205" height="27"/>
<path d="M79.936 33.36V38H77.152C75.168 38 73.6213 37.52 72.512 36.56C71.4027 35.5787 70.848 33.9893 70.848 31.792V24.688H68.672V20.144H70.848V15.792H76.32V20.144H79.904V24.688H76.32V31.856C76.32 32.3893 76.448 32.7733 76.704 33.008C76.96 33.2427 77.3867 33.36 77.984 33.36H79.936ZM91.112 38.256C89.3627 38.256 87.784 37.8827 86.376 37.136C84.9893 36.3893 83.8907 35.3227 83.08 33.936C82.2907 32.5493 81.896 30.928 81.896 29.072C81.896 27.2373 82.3013 25.6267 83.112 24.24C83.9227 22.832 85.032 21.7547 86.44 21.008C87.848 20.2613 89.4267 19.888 91.176 19.888C92.9253 19.888 94.504 20.2613 95.912 21.008C97.32 21.7547 98.4293 22.832 99.24 24.24C100.051 25.6267 100.456 27.2373 100.456 29.072C100.456 30.9067 100.04 32.528 99.208 33.936C98.3973 35.3227 97.2773 36.3893 95.848 37.136C94.44 37.8827 92.8613 38.256 91.112 38.256ZM91.112 33.52C92.1573 33.52 93.0427 33.136 93.768 32.368C94.5147 31.6 94.888 30.5013 94.888 29.072C94.888 27.6427 94.5253 26.544 93.8 25.776C93.096 25.008 92.2213 24.624 91.176 24.624C90.1093 24.624 89.224 25.008 88.52 25.776C87.816 26.5227 87.464 27.6213 87.464 29.072C87.464 30.5013 87.8053 31.6 88.488 32.368C89.192 33.136 90.0667 33.52 91.112 33.52ZM111.487 38.256C109.738 38.256 108.159 37.8827 106.751 37.136C105.364 36.3893 104.266 35.3227 103.455 33.936C102.666 32.5493 102.271 30.928 102.271 29.072C102.271 27.2373 102.676 25.6267 103.487 24.24C104.298 22.832 105.407 21.7547 106.815 21.008C108.223 20.2613 109.802 19.888 111.551 19.888C113.3 19.888 114.879 20.2613 116.287 21.008C117.695 21.7547 118.804 22.832 119.615 24.24C120.426 25.6267 120.831 27.2373 120.831 29.072C120.831 30.9067 120.415 32.528 119.583 33.936C118.772 35.3227 117.652 36.3893 116.223 37.136C114.815 37.8827 113.236 38.256 111.487 38.256ZM111.487 33.52C112.532 33.52 113.418 33.136 114.143 32.368C114.89 31.6 115.263 30.5013 115.263 29.072C115.263 27.6427 114.9 26.544 114.175 25.776C113.471 25.008 112.596 24.624 111.551 24.624C110.484 24.624 109.599 25.008 108.895 25.776C108.191 26.5227 107.839 27.6213 107.839 29.072C107.839 30.5013 108.18 31.6 108.863 32.368C109.567 33.136 110.442 33.52 111.487 33.52ZM129.206 14.32V38H123.734V14.32H129.206ZM140.436 38.256C138.878 38.256 137.492 37.9893 136.276 37.456C135.06 36.9227 134.1 36.1973 133.396 35.28C132.692 34.3413 132.297 33.296 132.212 32.144H137.62C137.684 32.7627 137.972 33.264 138.484 33.648C138.996 34.032 139.625 34.224 140.372 34.224C141.054 34.224 141.577 34.096 141.94 33.84C142.324 33.5627 142.516 33.2107 142.516 32.784C142.516 32.272 142.249 31.8987 141.716 31.664C141.182 31.408 140.318 31.1307 139.124 30.832C137.844 30.5333 136.777 30.224 135.924 29.904C135.07 29.5627 134.334 29.04 133.716 28.336C133.097 27.6107 132.788 26.64 132.788 25.424C132.788 24.4 133.065 23.472 133.62 22.64C134.196 21.7867 135.028 21.1147 136.116 20.624C137.225 20.1333 138.537 19.888 140.052 19.888C142.292 19.888 144.052 20.4427 145.332 21.552C146.633 22.6613 147.38 24.1333 147.572 25.968H142.516C142.43 25.3493 142.153 24.8587 141.684 24.496C141.236 24.1333 140.638 23.952 139.892 23.952C139.252 23.952 138.761 24.08 138.42 24.336C138.078 24.5707 137.908 24.9013 137.908 25.328C137.908 25.84 138.174 26.224 138.708 26.48C139.262 26.736 140.116 26.992 141.268 27.248C142.59 27.5893 143.668 27.9307 144.5 28.272C145.332 28.592 146.057 29.1253 146.676 29.872C147.316 30.5973 147.646 31.5787 147.668 32.816C147.668 33.8613 147.369 34.8 146.772 35.632C146.196 36.4427 145.353 37.0827 144.244 37.552C143.156 38.0213 141.886 38.256 140.436 38.256ZM150.087 26.736C150.087 24.5173 150.567 22.544 151.527 20.816C152.487 19.0667 153.821 17.712 155.527 16.752C157.255 15.7707 159.207 15.28 161.383 15.28C164.05 15.28 166.333 15.984 168.231 17.392C170.13 18.8 171.399 20.72 172.039 23.152H166.023C165.575 22.2133 164.935 21.4987 164.103 21.008C163.293 20.5173 162.365 20.272 161.319 20.272C159.634 20.272 158.269 20.8587 157.223 22.032C156.178 23.2053 155.655 24.7733 155.655 26.736C155.655 28.6987 156.178 30.2667 157.223 31.44C158.269 32.6133 159.634 33.2 161.319 33.2C162.365 33.2 163.293 32.9547 164.103 32.464C164.935 31.9733 165.575 31.2587 166.023 30.32H172.039C171.399 32.752 170.13 34.672 168.231 36.08C166.333 37.4667 164.05 38.16 161.383 38.16C159.207 38.16 157.255 37.68 155.527 36.72C153.821 35.7387 152.487 34.384 151.527 32.656C150.567 30.928 150.087 28.9547 150.087 26.736ZM192.222 28.784C192.222 29.296 192.19 29.8293 192.126 30.384H179.742C179.828 31.4933 180.18 32.3467 180.798 32.944C181.438 33.52 182.217 33.808 183.134 33.808C184.5 33.808 185.449 33.232 185.982 32.08H191.806C191.508 33.2533 190.964 34.3093 190.174 35.248C189.406 36.1867 188.436 36.9227 187.262 37.456C186.089 37.9893 184.777 38.256 183.326 38.256C181.577 38.256 180.02 37.8827 178.654 37.136C177.289 36.3893 176.222 35.3227 175.454 33.936C174.686 32.5493 174.302 30.928 174.302 29.072C174.302 27.216 174.676 25.5947 175.422 24.208C176.19 22.8213 177.257 21.7547 178.622 21.008C179.988 20.2613 181.556 19.888 183.326 19.888C185.054 19.888 186.59 20.2507 187.934 20.976C189.278 21.7013 190.324 22.736 191.07 24.08C191.838 25.424 192.222 26.992 192.222 28.784ZM186.622 27.344C186.622 26.4053 186.302 25.6587 185.662 25.104C185.022 24.5493 184.222 24.272 183.262 24.272C182.345 24.272 181.566 24.5387 180.926 25.072C180.308 25.6053 179.924 26.3627 179.774 27.344H186.622ZM205.989 19.952C208.08 19.952 209.744 20.6347 210.981 22C212.24 23.344 212.869 25.2 212.869 27.568V38H207.429V28.304C207.429 27.1093 207.12 26.1813 206.501 25.52C205.882 24.8587 205.05 24.528 204.005 24.528C202.96 24.528 202.128 24.8587 201.509 25.52C200.89 26.1813 200.581 27.1093 200.581 28.304V38H195.109V20.144H200.581V22.512C201.136 21.7227 201.882 21.104 202.821 20.656C203.76 20.1867 204.816 19.952 205.989 19.952ZM226.624 33.36V38H223.84C221.856 38 220.309 37.52 219.2 36.56C218.09 35.5787 217.536 33.9893 217.536 31.792V24.688H215.36V20.144H217.536V15.792H223.008V20.144H226.592V24.688H223.008V31.856C223.008 32.3893 223.136 32.7733 223.392 33.008C223.648 33.2427 224.074 33.36 224.672 33.36H226.624ZM235.144 23.12C235.784 22.1387 236.584 21.3707 237.544 20.816C238.504 20.24 239.57 19.952 240.744 19.952V25.744H239.24C237.874 25.744 236.85 26.0427 236.168 26.64C235.485 27.216 235.144 28.24 235.144 29.712V38H229.672V20.144H235.144V23.12ZM242.271 29.04C242.271 27.2053 242.612 25.5947 243.295 24.208C243.999 22.8213 244.948 21.7547 246.143 21.008C247.338 20.2613 248.671 19.888 250.143 19.888C251.402 19.888 252.5 20.144 253.439 20.656C254.399 21.168 255.135 21.84 255.647 22.672V20.144H261.119V38H255.647V35.472C255.114 36.304 254.367 36.976 253.407 37.488C252.468 38 251.37 38.256 250.111 38.256C248.66 38.256 247.338 37.8827 246.143 37.136C244.948 36.368 243.999 35.2907 243.295 33.904C242.612 32.496 242.271 30.8747 242.271 29.04ZM255.647 29.072C255.647 27.7067 255.263 26.6293 254.495 25.84C253.748 25.0507 252.831 24.656 251.743 24.656C250.655 24.656 249.727 25.0507 248.959 25.84C248.212 26.608 247.839 27.6747 247.839 29.04C247.839 30.4053 248.212 31.4933 248.959 32.304C249.727 33.0933 250.655 33.488 251.743 33.488C252.831 33.488 253.748 33.0933 254.495 32.304C255.263 31.5147 255.647 30.4373 255.647 29.072ZM270.55 14.32V38H265.078V14.32H270.55Z"/>
</mask>
<path d="M79.936 33.36H80.936V32.36H79.936V33.36ZM79.936 38V39H80.936V38H79.936ZM72.512 36.56L71.8494 37.309L71.8576 37.3162L72.512 36.56ZM70.848 24.688H71.848V23.688H70.848V24.688ZM68.672 24.688H67.672V25.688H68.672V24.688ZM68.672 20.144V19.144H67.672V20.144H68.672ZM70.848 20.144V21.144H71.848V20.144H70.848ZM70.848 15.792V14.792H69.848V15.792H70.848ZM76.32 15.792H77.32V14.792H76.32V15.792ZM76.32 20.144H75.32V21.144H76.32V20.144ZM79.904 20.144H80.904V19.144H79.904V20.144ZM79.904 24.688V25.688H80.904V24.688H79.904ZM76.32 24.688V23.688H75.32V24.688H76.32ZM76.704 33.008L76.0283 33.7452L76.704 33.008ZM78.936 33.36V38H80.936V33.36H78.936ZM79.936 37H77.152V39H79.936V37ZM77.152 37C75.3231 37 74.0385 36.5586 73.1664 35.8038L71.8576 37.3162C73.2042 38.4814 75.0129 39 77.152 39V37ZM73.1746 35.811C72.3662 35.0959 71.848 33.8431 71.848 31.792H69.848C69.848 34.1356 70.4391 36.0614 71.8494 37.309L73.1746 35.811ZM71.848 31.792V24.688H69.848V31.792H71.848ZM70.848 23.688H68.672V25.688H70.848V23.688ZM69.672 24.688V20.144H67.672V24.688H69.672ZM68.672 21.144H70.848V19.144H68.672V21.144ZM71.848 20.144V15.792H69.848V20.144H71.848ZM70.848 16.792H76.32V14.792H70.848V16.792ZM75.32 15.792V20.144H77.32V15.792H75.32ZM76.32 21.144H79.904V19.144H76.32V21.144ZM78.904 20.144V24.688H80.904V20.144H78.904ZM79.904 23.688H76.32V25.688H79.904V23.688ZM75.32 24.688V31.856H77.32V24.688H75.32ZM75.32 31.856C75.32 32.5206 75.4768 33.2396 76.0283 33.7452L77.3797 32.2708C77.4192 32.3071 77.32 32.258 77.32 31.856H75.32ZM76.0283 33.7452C76.5625 34.2348 77.3024 34.36 77.984 34.36V32.36C77.7459 32.36 77.584 32.3361 77.4812 32.3078C77.38 32.28 77.3632 32.2557 77.3797 32.2708L76.0283 33.7452ZM77.984 34.36H79.936V32.36H77.984V34.36ZM86.376 37.136L85.9019 38.0165L85.9075 38.0195L86.376 37.136ZM83.08 33.936L82.2109 34.4307L82.2167 34.4407L83.08 33.936ZM83.112 24.24L83.9753 24.7447L83.9786 24.739L83.112 24.24ZM86.44 21.008L86.9085 21.8915L86.44 21.008ZM95.912 21.008L95.4435 21.8915L95.912 21.008ZM99.24 24.24L98.3734 24.739L98.3767 24.7447L99.24 24.24ZM99.208 33.936L98.3471 33.4273L98.3447 33.4313L99.208 33.936ZM95.848 37.136L95.385 36.2496L95.3795 36.2525L95.848 37.136ZM93.768 32.368L93.051 31.6709L93.046 31.6761L93.041 31.6814L93.768 32.368ZM93.8 25.776L93.0628 26.4517L93.0679 26.4572L93.073 26.4626L93.8 25.776ZM88.52 25.776L89.2477 26.4621L89.2572 26.4517L88.52 25.776ZM88.488 32.368L87.7406 33.0324L87.7457 33.0381L87.7508 33.0437L88.488 32.368ZM91.112 37.256C89.5097 37.256 88.0945 36.9154 86.8445 36.2525L85.9075 38.0195C87.4735 38.8499 89.2156 39.256 91.112 39.256V37.256ZM86.8501 36.2555C85.6286 35.5978 84.6632 34.6627 83.9433 33.4313L82.2167 34.4407C83.1182 35.9827 84.3501 37.1809 85.9019 38.0165L86.8501 36.2555ZM83.9491 33.4413C83.2587 32.2284 82.896 30.7831 82.896 29.072H80.896C80.896 31.0729 81.3227 32.8703 82.2109 34.4307L83.9491 33.4413ZM82.896 29.072C82.896 27.3891 83.2663 25.9575 83.9753 24.7447L82.2487 23.7353C81.3364 25.2958 80.896 27.0856 80.896 29.072H82.896ZM83.9786 24.739C84.6973 23.4907 85.6701 22.5482 86.9085 21.8915L85.9715 20.1245C84.3939 20.9612 83.148 22.1733 82.2454 23.741L83.9786 24.739ZM86.9085 21.8915C88.1585 21.2286 89.5737 20.888 91.176 20.888V18.888C89.2796 18.888 87.5375 19.2941 85.9715 20.1245L86.9085 21.8915ZM91.176 20.888C92.7783 20.888 94.1935 21.2286 95.4435 21.8915L96.3805 20.1245C94.8145 19.2941 93.0724 18.888 91.176 18.888V20.888ZM95.4435 21.8915C96.6819 22.5482 97.6547 23.4907 98.3734 24.739L100.107 23.741C99.204 22.1733 97.9581 20.9612 96.3805 20.1245L95.4435 21.8915ZM98.3767 24.7447C99.0857 25.9575 99.456 27.3891 99.456 29.072H101.456C101.456 27.0856 101.016 25.2958 100.103 23.7353L98.3767 24.7447ZM99.456 29.072C99.456 30.75 99.0773 32.1915 98.3471 33.4273L100.069 34.4447C101.003 32.8645 101.456 31.0633 101.456 29.072H99.456ZM98.3447 33.4313C97.6293 34.655 96.6484 35.5897 95.385 36.2497L96.311 38.0224C97.9063 37.189 99.1653 35.9904 100.071 34.4407L98.3447 33.4313ZM95.3795 36.2525C94.1295 36.9154 92.7143 37.256 91.112 37.256V39.256C93.0084 39.256 94.7505 38.8499 96.3165 38.0195L95.3795 36.2525ZM91.112 34.52C92.4357 34.52 93.583 34.0202 94.495 33.0546L93.041 31.6814C92.5023 32.2518 91.8789 32.52 91.112 32.52V34.52ZM94.485 33.0651C95.4672 32.0548 95.888 30.6721 95.888 29.072H93.888C93.888 30.3305 93.5621 31.1452 93.051 31.6709L94.485 33.0651ZM95.888 29.072C95.888 27.4792 95.4819 26.1005 94.527 25.0894L93.073 26.4626C93.5687 26.9875 93.888 27.8062 93.888 29.072H95.888ZM94.5372 25.1003C93.643 24.1249 92.5006 23.624 91.176 23.624V25.624C91.9421 25.624 92.549 25.8911 93.0628 26.4517L94.5372 25.1003ZM91.176 23.624C89.8366 23.624 88.6813 24.1201 87.7828 25.1003L89.2572 26.4517C89.7667 25.8959 90.3821 25.624 91.176 25.624V23.624ZM87.7924 25.09C86.8524 26.087 86.464 27.472 86.464 29.072H88.464C88.464 27.7706 88.7796 26.9583 89.2476 26.462L87.7924 25.09ZM86.464 29.072C86.464 30.6505 86.8412 32.0206 87.7406 33.0324L89.2354 31.7036C88.7695 31.1794 88.464 30.3522 88.464 29.072H86.464ZM87.7508 33.0437C88.645 34.0191 89.7874 34.52 91.112 34.52V32.52C90.3459 32.52 89.739 32.2529 89.2252 31.6923L87.7508 33.0437ZM106.751 37.136L106.277 38.0165L106.282 38.0195L106.751 37.136ZM103.455 33.936L102.586 34.4307L102.592 34.4407L103.455 33.936ZM103.487 24.24L104.35 24.7447L104.354 24.739L103.487 24.24ZM106.815 21.008L107.284 21.8915L106.815 21.008ZM116.287 21.008L115.818 21.8915L116.287 21.008ZM119.615 24.24L118.748 24.739L118.752 24.7447L119.615 24.24ZM119.583 33.936L118.722 33.4273L118.72 33.4313L119.583 33.936ZM116.223 37.136L115.76 36.2496L115.754 36.2525L116.223 37.136ZM114.143 32.368L113.426 31.6709L113.421 31.6761L113.416 31.6814L114.143 32.368ZM114.175 25.776L113.438 26.4517L113.443 26.4572L113.448 26.4626L114.175 25.776ZM108.895 25.776L109.623 26.4621L109.632 26.4517L108.895 25.776ZM108.863 32.368L108.116 33.0324L108.121 33.0381L108.126 33.0437L108.863 32.368ZM111.487 37.256C109.885 37.256 108.469 36.9154 107.22 36.2525L106.282 38.0195C107.849 38.8499 109.591 39.256 111.487 39.256V37.256ZM107.225 36.2555C106.004 35.5978 105.038 34.6627 104.318 33.4313L102.592 34.4407C103.493 35.9827 104.725 37.1809 106.277 38.0165L107.225 36.2555ZM104.324 33.4413C103.634 32.2284 103.271 30.7831 103.271 29.072H101.271C101.271 31.0729 101.698 32.8703 102.586 34.4307L104.324 33.4413ZM103.271 29.072C103.271 27.3891 103.641 25.9575 104.35 24.7447L102.624 23.7353C101.711 25.2958 101.271 27.0856 101.271 29.072H103.271ZM104.354 24.739C105.072 23.4907 106.045 22.5482 107.284 21.8915L106.346 20.1245C104.769 20.9612 103.523 22.1733 102.62 23.741L104.354 24.739ZM107.284 21.8915C108.533 21.2286 109.949 20.888 111.551 20.888V18.888C109.655 18.888 107.913 19.2941 106.346 20.1245L107.284 21.8915ZM111.551 20.888C113.153 20.888 114.569 21.2286 115.818 21.8915L116.756 20.1245C115.189 19.2941 113.447 18.888 111.551 18.888V20.888ZM115.818 21.8915C117.057 22.5482 118.03 23.4907 118.748 24.739L120.482 23.741C119.579 22.1733 118.333 20.9612 116.756 20.1245L115.818 21.8915ZM118.752 24.7447C119.461 25.9575 119.831 27.3891 119.831 29.072H121.831C121.831 27.0856 121.391 25.2958 120.478 23.7353L118.752 24.7447ZM119.831 29.072C119.831 30.75 119.452 32.1915 118.722 33.4273L120.444 34.4447C121.378 32.8645 121.831 31.0633 121.831 29.072H119.831ZM118.72 33.4313C118.004 34.655 117.023 35.5897 115.76 36.2497L116.686 38.0224C118.281 37.189 119.54 35.9904 120.446 34.4407L118.72 33.4313ZM115.754 36.2525C114.505 36.9154 113.089 37.256 111.487 37.256V39.256C113.383 39.256 115.125 38.8499 116.692 38.0195L115.754 36.2525ZM111.487 34.52C112.811 34.52 113.958 34.0202 114.87 33.0546L113.416 31.6814C112.877 32.2518 112.254 32.52 111.487 32.52V34.52ZM114.86 33.0651C115.842 32.0548 116.263 30.6721 116.263 29.072H114.263C114.263 30.3305 113.937 31.1452 113.426 31.6709L114.86 33.0651ZM116.263 29.072C116.263 27.4792 115.857 26.1005 114.902 25.0894L113.448 26.4626C113.944 26.9875 114.263 27.8062 114.263 29.072H116.263ZM114.912 25.1003C114.018 24.1249 112.876 23.624 111.551 23.624V25.624C112.317 25.624 112.924 25.8911 113.438 26.4517L114.912 25.1003ZM111.551 23.624C110.212 23.624 109.056 24.1201 108.158 25.1003L109.632 26.4517C110.142 25.8959 110.757 25.624 111.551 25.624V23.624ZM108.167 25.09C107.227 26.087 106.839 27.472 106.839 29.072H108.839C108.839 27.7706 109.155 26.9583 109.623 26.462L108.167 25.09ZM106.839 29.072C106.839 30.6505 107.216 32.0206 108.116 33.0324L109.61 31.7036C109.144 31.1794 108.839 30.3522 108.839 29.072H106.839ZM108.126 33.0437C109.02 34.0191 110.162 34.52 111.487 34.52V32.52C110.721 32.52 110.114 32.2529 109.6 31.6923L108.126 33.0437ZM129.206 14.32H130.206V13.32H129.206V14.32ZM129.206 38V39H130.206V38H129.206ZM123.734 38H122.734V39H123.734V38ZM123.734 14.32V13.32H122.734V14.32H123.734ZM128.206 14.32V38H130.206V14.32H128.206ZM129.206 37H123.734V39H129.206V37ZM124.734 38V14.32H122.734V38H124.734ZM123.734 15.32H129.206V13.32H123.734V15.32ZM136.275 37.456L136.677 36.5402L136.275 37.456ZM133.396 35.28L132.595 35.88L132.602 35.8888L133.396 35.28ZM132.212 32.144V31.144H131.135L131.214 32.2179L132.212 32.144ZM137.619 32.144L138.614 32.0411L138.521 31.144H137.619V32.144ZM138.483 33.648L139.084 32.848L138.483 33.648ZM141.939 33.84L142.516 34.657L142.525 34.6507L141.939 33.84ZM141.715 31.664L141.283 32.5655L141.298 32.5727L141.313 32.5793L141.715 31.664ZM139.123 30.832L139.366 29.8619L139.358 29.8599L139.351 29.8582L139.123 30.832ZM135.924 29.904L135.552 30.8325L135.562 30.8365L135.572 30.8403L135.924 29.904ZM133.715 28.336L132.955 28.9849L132.959 28.9906L132.964 28.9961L133.715 28.336ZM133.619 22.64L132.791 22.0805L132.787 22.0853L133.619 22.64ZM136.116 20.624L135.711 19.7094L135.704 19.7124L136.116 20.624ZM145.331 21.552L144.677 22.3077L144.683 22.313L145.331 21.552ZM147.572 25.968V26.968H148.682L148.566 25.8639L147.572 25.968ZM142.516 25.968L141.525 26.1046L141.644 26.968H142.516V25.968ZM141.684 24.496L141.054 25.2732L141.063 25.2804L141.072 25.2873L141.684 24.496ZM138.42 24.336L138.986 25.16L139.003 25.1484L139.02 25.136L138.42 24.336ZM138.708 26.48L138.275 27.3815L138.282 27.3848L138.288 27.388L138.708 26.48ZM141.268 27.248L141.517 26.2797L141.501 26.2755L141.484 26.2718L141.268 27.248ZM144.499 28.272L144.12 29.1972L144.13 29.2014L144.141 29.2053L144.499 28.272ZM146.675 29.872L145.905 30.51L145.915 30.522L145.926 30.5336L146.675 29.872ZM147.668 32.816H148.668V32.8074L148.667 32.7988L147.668 32.816ZM146.771 35.632L145.959 35.0488L145.956 35.0528L146.771 35.632ZM144.243 37.552L143.854 36.631L143.847 36.6338L144.243 37.552ZM140.436 37.256C138.993 37.256 137.747 37.0092 136.677 36.5402L135.874 38.3718C137.236 38.9694 138.764 39.256 140.436 39.256V37.256ZM136.677 36.5402C135.592 36.0644 134.776 35.4361 134.189 34.6712L132.602 35.8888C133.423 36.9585 134.527 37.7809 135.874 38.3718L136.677 36.5402ZM134.196 34.68C133.604 33.8917 133.28 33.0283 133.209 32.0701L131.214 32.2179C131.314 33.5637 131.779 34.791 132.595 35.88L134.196 34.68ZM132.212 33.144H137.619V31.144H132.212V33.144ZM136.625 32.2469C136.718 33.1518 137.156 33.9023 137.883 34.448L139.084 32.848C138.787 32.6257 138.649 32.3736 138.614 32.0411L136.625 32.2469ZM137.883 34.448C138.596 34.9826 139.446 35.224 140.371 35.224V33.224C139.804 33.224 139.395 33.0814 139.084 32.848L137.883 34.448ZM140.371 35.224C141.157 35.224 141.916 35.0805 142.516 34.657L141.363 33.023C141.237 33.1115 140.951 33.224 140.371 33.224V35.224ZM142.525 34.6507C143.136 34.2094 143.516 33.5707 143.516 32.784H141.516C141.516 32.8506 141.511 32.916 141.354 33.0293L142.525 34.6507ZM143.516 32.784C143.516 32.3448 143.398 31.9145 143.129 31.5388C142.867 31.1713 142.506 30.9192 142.118 30.7487L141.313 32.5793C141.459 32.6435 141.498 32.6954 141.502 32.7012C141.504 32.7048 141.506 32.7077 141.508 32.7144C141.51 32.7221 141.516 32.7433 141.516 32.784H143.516ZM142.148 30.7625C141.518 30.4602 140.572 30.1633 139.366 29.8619L138.881 31.8021C140.065 32.098 140.846 32.3558 141.283 32.5655L142.148 30.7625ZM139.351 29.8582C138.096 29.5654 137.074 29.2675 136.275 28.9677L135.572 30.8403C136.48 31.1805 137.591 31.5012 138.896 31.8058L139.351 29.8582ZM136.295 28.9755C135.59 28.6937 134.984 28.2642 134.467 27.6759L132.964 28.9961C133.685 29.8158 134.55 30.4316 135.552 30.8325L136.295 28.9755ZM134.476 27.6871C134.051 27.188 133.787 26.4693 133.787 25.424H131.787C131.787 26.8107 132.143 28.0333 132.955 28.9849L134.476 27.6871ZM133.787 25.424C133.787 24.5924 134.009 23.8583 134.452 23.1947L132.787 22.0853C132.121 23.0857 131.787 24.2076 131.787 25.424H133.787ZM134.448 23.1995C134.905 22.5232 135.58 21.9623 136.527 21.5356L135.704 19.7124C134.475 20.267 133.486 21.0501 132.791 22.0805L134.448 23.1995ZM136.52 21.5385C137.474 21.1164 138.643 20.888 140.051 20.888V18.888C138.431 18.888 136.975 19.1503 135.711 19.7095L136.52 21.5385ZM140.051 20.888C142.13 20.888 143.63 21.4008 144.677 22.3077L145.986 20.7963C144.473 19.4845 142.453 18.888 140.051 18.888V20.888ZM144.683 22.313C145.773 23.242 146.409 24.4706 146.577 26.0721L148.566 25.8639C148.35 23.796 147.493 22.0806 145.98 20.791L144.683 22.313ZM147.572 24.968H142.516V26.968H147.572V24.968ZM143.506 25.8314C143.387 24.9685 142.983 24.2367 142.295 23.7047L141.072 25.2873C141.322 25.4806 141.473 25.7302 141.525 26.1046L143.506 25.8314ZM142.313 23.7188C141.64 23.1741 140.799 22.952 139.892 22.952V24.952C140.478 24.952 140.831 25.0926 141.054 25.2732L142.313 23.7188ZM139.892 22.952C139.138 22.952 138.401 23.0997 137.82 23.536L139.02 25.136C139.12 25.0603 139.365 24.952 139.892 24.952V22.952ZM137.853 23.512C137.231 23.9398 136.908 24.5839 136.908 25.328H138.908C138.908 25.2507 138.922 25.2226 138.924 25.2186C138.926 25.2158 138.936 25.1947 138.986 25.16L137.853 23.512ZM136.908 25.328C136.908 25.7676 137.025 26.195 137.286 26.5704C137.541 26.9375 137.893 27.1982 138.275 27.3815L139.14 25.5785C138.989 25.5058 138.941 25.4465 138.929 25.4296C138.923 25.421 138.908 25.4004 138.908 25.328H136.908ZM138.288 27.388C138.943 27.69 139.881 27.9642 141.051 28.2242L141.484 26.2718C140.35 26.0198 139.582 25.782 139.127 25.572L138.288 27.388ZM141.018 28.2163C142.316 28.5514 143.346 28.8796 144.12 29.1972L144.879 27.3468C143.989 26.9818 142.864 26.6273 141.517 26.2797L141.018 28.2163ZM144.141 29.2053C144.799 29.4585 145.386 29.8835 145.905 30.51L147.446 29.234C146.727 28.3672 145.864 27.7255 144.858 27.3387L144.141 29.2053ZM145.926 30.5336C146.369 31.0356 146.649 31.7656 146.668 32.8332L148.667 32.7988C148.643 31.3917 148.262 30.1591 147.425 29.2104L145.926 30.5336ZM146.668 32.816C146.668 33.6567 146.432 34.3905 145.959 35.0488L147.584 36.2152C148.306 35.2095 148.668 34.066 148.668 32.816H146.668ZM145.956 35.0528C145.508 35.6831 144.829 36.2186 143.854 36.631L144.633 38.473C145.877 37.9467 146.883 37.2022 147.587 36.2112L145.956 35.0528ZM143.847 36.6338C142.909 37.0385 141.78 37.256 140.436 37.256V39.256C141.993 39.256 143.402 39.0042 144.64 38.4702L143.847 36.6338ZM151.527 20.816L152.401 21.3016L152.404 21.2971L151.527 20.816ZM155.527 16.752L156.018 17.6236L156.021 17.6216L155.527 16.752ZM168.231 17.392L168.827 16.5888L168.231 17.392ZM172.039 23.152V24.152H173.336L173.006 22.8975L172.039 23.152ZM166.023 23.152L165.121 23.5827L165.392 24.152H166.023V23.152ZM164.103 21.008L163.585 21.8636L163.595 21.8694L164.103 21.008ZM157.223 22.032L157.97 22.6972L157.223 22.032ZM157.223 31.44L156.477 32.1052L157.223 31.44ZM164.103 32.464L163.595 31.6026L163.585 31.6085L164.103 32.464ZM166.023 30.32V29.32H165.392L165.121 29.8893L166.023 30.32ZM172.039 30.32L173.006 30.5745L173.336 29.32H172.039V30.32ZM168.231 36.08L168.821 36.8876L168.827 36.8832L168.231 36.08ZM155.527 36.72L155.029 37.5869L155.035 37.5906L155.042 37.5942L155.527 36.72ZM151.527 32.656L152.401 32.1704L151.527 32.656ZM151.087 26.736C151.087 24.6661 151.534 22.8636 152.401 21.3016L150.653 20.3304C149.601 22.2244 149.087 24.3686 149.087 26.736H151.087ZM152.404 21.2971C153.276 19.7082 154.477 18.4902 156.018 17.6236L155.037 15.8804C153.164 16.9338 151.699 18.4252 150.651 20.3349L152.404 21.2971ZM156.021 17.6216C157.584 16.7337 159.363 16.28 161.383 16.28V14.28C159.051 14.28 156.926 14.8076 155.033 15.8824L156.021 17.6216ZM161.383 16.28C163.864 16.28 165.931 16.9311 167.636 18.1952L168.827 16.5888C166.734 15.0368 164.236 14.28 161.383 14.28V16.28ZM167.636 18.1952C169.34 19.4588 170.486 21.1792 171.072 23.4065L173.006 22.8975C172.312 20.2608 170.92 18.1412 168.827 16.5888L167.636 18.1952ZM172.039 22.152H166.023V24.152H172.039V22.152ZM166.926 22.7213C166.399 21.6175 165.628 20.7462 164.611 20.1466L163.595 21.8694C164.243 22.2511 164.752 22.8092 165.121 23.5827L166.926 22.7213ZM164.621 20.1525C163.638 19.5577 162.528 19.272 161.319 19.272V21.272C162.201 21.272 162.947 21.4769 163.585 21.8635L164.621 20.1525ZM161.319 19.272C159.372 19.272 157.727 19.9637 156.477 21.3668L157.97 22.6972C158.811 21.7537 159.896 21.272 161.319 21.272V19.272ZM156.477 21.3668C155.23 22.7657 154.655 24.5915 154.655 26.736H156.655C156.655 24.9552 157.126 23.645 157.97 22.6972L156.477 21.3668ZM154.655 26.736C154.655 28.8805 155.23 30.7063 156.477 32.1052L157.97 30.7748C157.126 29.827 156.655 28.5168 156.655 26.736H154.655ZM156.477 32.1052C157.727 33.5083 159.372 34.2 161.319 34.2V32.2C159.896 32.2 158.811 31.7183 157.97 30.7748L156.477 32.1052ZM161.319 34.2C162.528 34.2 163.638 33.9143 164.621 33.3195L163.585 31.6085C162.947 31.9951 162.201 32.2 161.319 32.2V34.2ZM164.611 33.3254C165.628 32.7258 166.399 31.8545 166.926 30.7507L165.121 29.8893C164.752 30.6628 164.243 31.2209 163.595 31.6026L164.611 33.3254ZM166.023 31.32H172.039V29.32H166.023V31.32ZM171.072 30.0655C170.486 32.2928 169.34 34.0132 167.636 35.2768L168.827 36.8832C170.92 35.3308 172.312 33.2112 173.006 30.5745L171.072 30.0655ZM167.641 35.2724C165.937 36.5176 163.868 37.16 161.383 37.16V39.16C164.232 39.16 166.729 38.4157 168.821 36.8876L167.641 35.2724ZM161.383 37.16C159.36 37.16 157.578 36.7152 156.013 35.8458L155.042 37.5942C156.933 38.6448 159.055 39.16 161.383 39.16V37.16ZM156.026 35.8531C154.477 34.9627 153.274 33.7402 152.401 32.1704L150.653 33.1416C151.701 35.0278 153.164 36.5146 155.029 37.5869L156.026 35.8531ZM152.401 32.1704C151.534 30.6084 151.087 28.8059 151.087 26.736H149.087C149.087 29.1034 149.601 31.2476 150.653 33.1416L152.401 32.1704ZM192.126 30.384V31.384H193.018L193.12 30.4986L192.126 30.384ZM179.742 30.384V29.384H178.662L178.745 30.4607L179.742 30.384ZM180.798 32.944L180.104 33.6634L180.116 33.6756L180.129 33.6873L180.798 32.944ZM185.982 32.08V31.08H185.343L185.075 31.6599L185.982 32.08ZM191.806 32.08L192.775 32.3267L193.093 31.08H191.806V32.08ZM190.174 35.248L189.409 34.6043L189.4 34.6148L190.174 35.248ZM187.262 37.456L187.676 38.3664L187.262 37.456ZM178.654 37.136L178.174 38.0134L178.654 37.136ZM175.454 33.936L176.329 33.4515L175.454 33.936ZM175.422 24.208L174.547 23.7235L174.542 23.7339L175.422 24.208ZM178.622 21.008L179.102 21.8854L178.622 21.008ZM187.934 20.976L187.459 21.856L187.934 20.976ZM191.07 24.08L190.196 24.5657L190.202 24.5761L191.07 24.08ZM186.622 27.344V28.344H187.622V27.344H186.622ZM185.662 25.104L186.317 24.3483L185.662 25.104ZM180.926 25.072L180.286 24.3038L180.28 24.3091L180.273 24.3146L180.926 25.072ZM179.774 27.344L178.786 27.1936L178.611 28.344H179.774V27.344ZM191.222 28.784C191.222 29.2544 191.193 29.7494 191.133 30.2694L193.12 30.4986C193.188 29.9093 193.222 29.3376 193.222 28.784H191.222ZM192.126 29.384H179.742V31.384H192.126V29.384ZM178.745 30.4607C178.844 31.7405 179.262 32.851 180.104 33.6634L181.493 32.2246C181.097 31.8423 180.812 31.2461 180.739 30.3073L178.745 30.4607ZM180.129 33.6873C180.966 34.44 181.987 34.808 183.134 34.808V32.808C182.446 32.808 181.911 32.6 181.467 32.2007L180.129 33.6873ZM183.134 34.808C183.958 34.808 184.726 34.6334 185.389 34.2309C186.057 33.8256 186.552 33.2298 186.89 32.5001L185.075 31.6599C184.879 32.0822 184.633 32.3504 184.352 32.5211C184.066 32.6946 183.676 32.808 183.134 32.808V34.808ZM185.982 33.08H191.806V31.08H185.982V33.08ZM190.837 31.8333C190.576 32.8587 190.103 33.7795 189.409 34.6044L190.94 35.8916C191.825 34.8392 192.439 33.6479 192.775 32.3267L190.837 31.8333ZM189.4 34.6148C188.736 35.4272 187.891 36.0717 186.848 36.5456L187.676 38.3664C188.98 37.7736 190.077 36.9461 190.948 35.8812L189.4 34.6148ZM186.848 36.5456C185.82 37.0129 184.652 37.256 183.326 37.256V39.256C184.902 39.256 186.357 38.9658 187.676 38.3664L186.848 36.5456ZM183.326 37.256C181.723 37.256 180.335 36.9153 179.134 36.2586L178.174 38.0134C179.704 38.8501 181.43 39.256 183.326 39.256V37.256ZM179.134 36.2586C177.938 35.6046 177.007 34.6757 176.329 33.4515L174.579 34.4205C175.437 35.9696 176.64 37.174 178.174 38.0134L179.134 36.2586ZM176.329 33.4515C175.656 32.2366 175.302 30.7876 175.302 29.072H173.302C173.302 31.0684 173.716 32.862 174.579 34.4205L176.329 33.4515ZM175.302 29.072C175.302 27.3519 175.647 25.8991 176.303 24.6821L174.542 23.7339C173.704 25.2903 173.302 27.0801 173.302 29.072H175.302ZM176.297 24.6925C176.975 23.4683 177.906 22.5394 179.102 21.8854L178.142 20.1306C176.608 20.97 175.405 22.1744 174.547 23.7235L176.297 24.6925ZM179.102 21.8854C180.301 21.2297 181.7 20.888 183.326 20.888V18.888C181.411 18.888 179.674 19.293 178.142 20.1306L179.102 21.8854ZM183.326 20.888C184.911 20.888 186.28 21.2193 187.459 21.856L188.409 20.096C186.901 19.282 185.198 18.888 183.326 18.888V20.888ZM187.459 21.856C188.634 22.4901 189.541 23.3873 190.196 24.5656L191.944 23.5944C191.106 22.0847 189.922 20.9126 188.409 20.096L187.459 21.856ZM190.202 24.5761C190.871 25.7467 191.222 27.1383 191.222 28.784H193.222C193.222 26.8457 192.806 25.1013 191.938 23.5839L190.202 24.5761ZM187.622 27.344C187.622 26.1506 187.202 25.1149 186.317 24.3483L185.007 25.8597C185.403 26.2025 185.622 26.6601 185.622 27.344H187.622ZM186.317 24.3483C185.471 23.615 184.429 23.272 183.262 23.272V25.272C184.016 25.272 184.573 25.4837 185.007 25.8597L186.317 24.3483ZM183.262 23.272C182.136 23.272 181.124 23.6052 180.286 24.3038L181.566 25.8402C182.008 25.4721 182.554 25.272 183.262 25.272V23.272ZM180.273 24.3146C179.437 25.0354 178.963 26.0292 178.786 27.1936L180.763 27.4944C180.884 26.6961 181.178 26.1752 181.579 25.8294L180.273 24.3146ZM179.774 28.344H186.622V26.344H179.774V28.344ZM210.981 22L210.24 22.6715L210.246 22.6776L210.251 22.6836L210.981 22ZM212.869 38V39H213.869V38H212.869ZM207.429 38H206.429V39H207.429V38ZM206.501 25.52L205.771 26.2032L205.771 26.2032L206.501 25.52ZM201.509 25.52L202.239 26.2032V26.2032L201.509 25.52ZM200.581 38V39H201.581V38H200.581ZM195.109 38H194.109V39H195.109V38ZM195.109 20.144V19.144H194.109V20.144H195.109ZM200.581 20.144H201.581V19.144H200.581V20.144ZM200.581 22.512H199.581V25.6744L201.399 23.0869L200.581 22.512ZM202.821 20.656L203.252 21.5585L203.26 21.5545L203.268 21.5504L202.821 20.656ZM205.989 20.952C207.839 20.952 209.219 21.5446 210.24 22.6715L211.722 21.3285C210.269 19.7247 208.32 18.952 205.989 18.952V20.952ZM210.251 22.6836C211.291 23.7938 211.869 25.3787 211.869 27.568H213.869C213.869 25.0213 213.188 22.8942 211.711 21.3164L210.251 22.6836ZM211.869 27.568V38H213.869V27.568H211.869ZM212.869 37H207.429V39H212.869V37ZM208.429 38V28.304H206.429V38H208.429ZM208.429 28.304C208.429 26.9388 208.073 25.7363 207.231 24.8368L205.771 26.2032C206.167 26.6263 206.429 27.2799 206.429 28.304H208.429ZM207.231 24.8368C206.394 23.9416 205.28 23.528 204.005 23.528V25.528C204.82 25.528 205.371 25.7757 205.771 26.2032L207.231 24.8368ZM204.005 23.528C202.73 23.528 201.616 23.9416 200.779 24.8368L202.239 26.2032C202.639 25.7757 203.19 25.528 204.005 25.528V23.528ZM200.779 24.8368C199.937 25.7363 199.581 26.9388 199.581 28.304H201.581C201.581 27.2799 201.843 26.6263 202.239 26.2032L200.779 24.8368ZM199.581 28.304V38H201.581V28.304H199.581ZM200.581 37H195.109V39H200.581V37ZM196.109 38V20.144H194.109V38H196.109ZM195.109 21.144H200.581V19.144H195.109V21.144ZM199.581 20.144V22.512H201.581V20.144H199.581ZM201.399 23.0869C201.847 22.4492 202.456 21.9384 203.252 21.5585L202.39 19.7535C201.309 20.2696 200.424 20.9961 199.763 21.9371L201.399 23.0869ZM203.268 21.5504C204.052 21.1584 204.952 20.952 205.989 20.952V18.952C204.679 18.952 203.467 19.215 202.374 19.7616L203.268 21.5504ZM226.624 33.36H227.624V32.36H226.624V33.36ZM226.624 38V39H227.624V38H226.624ZM219.199 36.56L218.537 37.309L218.545 37.3162L219.199 36.56ZM217.536 24.688H218.536V23.688H217.536V24.688ZM215.359 24.688H214.359V25.688H215.359V24.688ZM215.359 20.144V19.144H214.359V20.144H215.359ZM217.536 20.144V21.144H218.536V20.144H217.536ZM217.536 15.792V14.792H216.536V15.792H217.536ZM223.008 15.792H224.008V14.792H223.008V15.792ZM223.008 20.144H222.008V21.144H223.008V20.144ZM226.592 20.144H227.592V19.144H226.592V20.144ZM226.592 24.688V25.688H227.592V24.688H226.592ZM223.008 24.688V23.688H222.008V24.688H223.008ZM223.391 33.008L222.716 33.7452L223.391 33.008ZM225.624 33.36V38H227.624V33.36H225.624ZM226.624 37H223.84V39H226.624V37ZM223.84 37C222.011 37 220.726 36.5586 219.854 35.8038L218.545 37.3162C219.892 38.4814 221.7 39 223.84 39V37ZM219.862 35.811C219.054 35.0959 218.536 33.8431 218.536 31.792H216.536C216.536 34.1356 217.127 36.0614 218.537 37.309L219.862 35.811ZM218.536 31.792V24.688H216.536V31.792H218.536ZM217.536 23.688H215.359V25.688H217.536V23.688ZM216.359 24.688V20.144H214.359V24.688H216.359ZM215.359 21.144H217.536V19.144H215.359V21.144ZM218.536 20.144V15.792H216.536V20.144H218.536ZM217.536 16.792H223.008V14.792H217.536V16.792ZM222.008 15.792V20.144H224.008V15.792H222.008ZM223.008 21.144H226.592V19.144H223.008V21.144ZM225.592 20.144V24.688H227.592V20.144H225.592ZM226.592 23.688H223.008V25.688H226.592V23.688ZM222.008 24.688V31.856H224.008V24.688H222.008ZM222.008 31.856C222.008 32.5206 222.164 33.2396 222.716 33.7452L224.067 32.2708C224.107 32.3071 224.008 32.258 224.008 31.856H222.008ZM222.716 33.7452C223.25 34.2348 223.99 34.36 224.671 34.36V32.36C224.433 32.36 224.271 32.3361 224.169 32.3078C224.067 32.28 224.051 32.2557 224.067 32.2708L222.716 33.7452ZM224.671 34.36H226.624V32.36H224.671V34.36ZM235.143 23.12H234.143V26.4839L235.981 23.6663L235.143 23.12ZM237.544 20.816L238.044 21.6819L238.051 21.6777L238.058 21.6735L237.544 20.816ZM240.743 19.952H241.743V18.952H240.743V19.952ZM240.743 25.744V26.744H241.743V25.744H240.743ZM236.167 26.64L236.812 27.4043L236.819 27.3985L236.826 27.3926L236.167 26.64ZM235.143 38V39H236.143V38H235.143ZM229.671 38H228.671V39H229.671V38ZM229.671 20.144V19.144H228.671V20.144H229.671ZM235.143 20.144H236.143V19.144H235.143V20.144ZM235.981 23.6663C236.54 22.8088 237.227 22.1535 238.044 21.6819L237.043 19.9501C235.94 20.5878 235.027 21.4685 234.306 22.5737L235.981 23.6663ZM238.058 21.6735C238.855 21.1953 239.742 20.952 240.743 20.952V18.952C239.398 18.952 238.152 19.2847 237.029 19.9585L238.058 21.6735ZM239.743 19.952V25.744H241.743V19.952H239.743ZM240.743 24.744H239.24V26.744H240.743V24.744ZM239.24 24.744C237.75 24.744 236.447 25.0669 235.509 25.8874L236.826 27.3926C237.254 27.0185 237.998 26.744 239.24 26.744V24.744ZM235.523 25.8757C234.503 26.7358 234.143 28.1317 234.143 29.712H236.143C236.143 28.3483 236.466 27.6962 236.812 27.4043L235.523 25.8757ZM234.143 29.712V38H236.143V29.712H234.143ZM235.143 37H229.671V39H235.143V37ZM230.671 38V20.144H228.671V38H230.671ZM229.671 21.144H235.143V19.144H229.671V21.144ZM234.143 20.144V23.12H236.143V20.144H234.143ZM243.295 24.208L242.403 23.7553L242.398 23.7663L243.295 24.208ZM246.143 21.008L246.673 21.856L246.143 21.008ZM253.439 20.656L252.96 21.5339L252.968 21.5384L253.439 20.656ZM255.647 22.672L254.795 23.1961L256.647 26.205V22.672H255.647ZM255.647 20.144V19.144H254.647V20.144H255.647ZM261.119 20.144H262.119V19.144H261.119V20.144ZM261.119 38V39H262.119V38H261.119ZM255.647 38H254.647V39H255.647V38ZM255.647 35.472H256.647V32.059L254.805 34.9323L255.647 35.472ZM253.407 37.488L252.936 36.6056L252.928 36.6101L253.407 37.488ZM246.143 37.136L245.602 37.9772L245.613 37.984L246.143 37.136ZM243.295 33.904L242.395 34.3403L242.399 34.3485L242.403 34.3567L243.295 33.904ZM254.495 25.84L253.768 26.5273L253.778 26.5374L254.495 25.84ZM248.959 25.84L248.242 25.1426L248.242 25.1429L248.959 25.84ZM248.959 32.304L248.223 32.9815L248.233 32.9915L248.242 33.0014L248.959 32.304ZM254.495 32.304L253.778 31.6066L253.769 31.6168L254.495 32.304ZM243.271 29.04C243.271 27.3301 243.589 25.8755 244.192 24.6497L242.398 23.7663C241.636 25.3138 241.271 27.0806 241.271 29.04H243.271ZM244.187 24.6607C244.817 23.4189 245.648 22.4964 246.673 21.856L245.613 20.16C244.248 21.0129 243.181 22.2238 242.403 23.7553L244.187 24.6607ZM246.673 21.856C247.701 21.2132 248.85 20.888 250.143 20.888V18.888C248.492 18.888 246.974 19.3094 245.613 20.16L246.673 21.856ZM250.143 20.888C251.264 20.888 252.192 21.1151 252.96 21.5339L253.918 19.7781C252.808 19.1729 251.539 18.888 250.143 18.888V20.888ZM252.968 21.5384C253.79 21.9766 254.387 22.5319 254.795 23.1961L256.499 22.1479C255.883 21.1481 255.008 20.3594 253.91 19.7736L252.968 21.5384ZM256.647 22.672V20.144H254.647V22.672H256.647ZM255.647 21.144H261.119V19.144H255.647V21.144ZM260.119 20.144V38H262.119V20.144H260.119ZM261.119 37H255.647V39H261.119V37ZM256.647 38V35.472H254.647V38H256.647ZM254.805 34.9323C254.373 35.606 253.761 36.1659 252.936 36.6056L253.878 38.3704C254.973 37.7861 255.854 37.002 256.489 36.0117L254.805 34.9323ZM252.928 36.6101C252.16 37.0289 251.232 37.256 250.111 37.256V39.256C251.507 39.256 252.776 38.9711 253.886 38.3659L252.928 36.6101ZM250.111 37.256C248.842 37.256 247.704 36.9323 246.673 36.288L245.613 37.984C246.971 38.8331 248.479 39.256 250.111 39.256V37.256ZM246.684 36.2948C245.652 35.6318 244.818 34.6951 244.187 33.4513L242.403 34.3567C243.18 35.8862 244.244 37.1042 245.602 37.9772L246.684 36.2948ZM244.195 33.4677C243.589 32.2173 243.271 30.7495 243.271 29.04H241.271C241.271 30.9999 241.636 32.7747 242.395 34.3403L244.195 33.4677ZM256.647 29.072C256.647 27.5121 256.203 26.1611 255.212 25.1426L253.778 26.5374C254.323 27.0976 254.647 27.9013 254.647 29.072H256.647ZM255.221 25.1528C254.286 24.1635 253.105 23.656 251.743 23.656V25.656C252.557 25.656 253.211 25.9378 253.769 26.5272L255.221 25.1528ZM251.743 23.656C250.381 23.656 249.196 24.1625 248.242 25.1426L249.676 26.5374C250.258 25.9388 250.929 25.656 251.743 25.656V23.656ZM248.242 25.1429C247.268 26.1451 246.839 27.489 246.839 29.04H248.839C248.839 27.8603 249.157 27.0709 249.676 26.5371L248.242 25.1429ZM246.839 29.04C246.839 30.5936 247.269 31.9447 248.223 32.9815L249.695 31.6265C249.156 31.042 248.839 30.217 248.839 29.04H246.839ZM248.242 33.0014C249.196 33.9815 250.381 34.488 251.743 34.488V32.488C250.929 32.488 250.258 32.2052 249.676 31.6066L248.242 33.0014ZM251.743 34.488C253.105 34.488 254.286 33.9805 255.221 32.9912L253.769 31.6168C253.211 32.2062 252.557 32.488 251.743 32.488V34.488ZM255.212 33.0014C256.203 31.9829 256.647 30.6319 256.647 29.072H254.647C254.647 30.2427 254.323 31.0464 253.778 31.6066L255.212 33.0014ZM270.55 14.32H271.55V13.32H270.55V14.32ZM270.55 38V39H271.55V38H270.55ZM265.078 38H264.078V39H265.078V38ZM265.078 14.32V13.32H264.078V14.32H265.078ZM269.55 14.32V38H271.55V14.32H269.55ZM270.55 37H265.078V39H270.55V37ZM266.078 38V14.32H264.078V38H266.078ZM265.078 15.32H270.55V13.32H265.078V15.32Z" fill="white" mask="url(#path-4-outside-1_422_835)"/>
</svg>
